<svg id="visual" viewBox="0 0 960 540" width="960" height="540" xmlns="http://www.w3.org/2000/svg" xmlns:xlink="http://www.w3.org/1999/xlink" version="1.1"><rect x="0" y="0" width="960" height="540" fill="#F4442E"></rect><path d="M0 502L20 495.3C40 488.7 80 475.3 120 453.8C160 432.3 200 402.7 240 386.5C280 370.3 320 367.7 360 376.2C400 384.7 440 404.3 480 424.2C520 444 560 464 600 460.5C640 457 680 430 720 432.5C760 435 800 467 840 470.3C880 473.7 920 448.3 940 435.7L960 423L960 541L940 541C920 541 880 541 840 541C800 541 760 541 720 541C680 541 640 541 600 541C560 541 520 541 480 541C440 541 400 541 360 541C320 541 280 541 240 541C200 541 160 541 120 541C80 541 40 541 20 541L0 541Z" fill="#16425B" stroke-linecap="round" stroke-linejoin="miter"></path></svg>