<svg id="visual" viewBox="0 0 960 540" width="960" height="540" xmlns="http://www.w3.org/2000/svg" xmlns:xlink="http://www.w3.org/1999/xlink" version="1.1"><rect x="0" y="0" width="960" height="540" fill="#EAE0CC"></rect><path d="M0 421L22.8 415.2C45.7 409.3 91.3 397.7 137 391.8C182.7 386 228.3 386 274 396.7C319.7 407.3 365.3 428.7 411.2 441.5C457 454.3 503 458.7 548.8 463C594.7 467.3 640.3 471.7 686 457.8C731.7 444 777.3 412 823 405.3C868.7 398.7 914.3 417.3 937.2 426.7L960 436L960 541L937.2 541C914.3 541 868.7 541 823 541C777.3 541 731.7 541 686 541C640.3 541 594.7 541 548.8 541C503 541 457 541 411.2 541C365.3 541 319.7 541 274 541C228.3 541 182.7 541 137 541C91.3 541 45.7 541 22.8 541L0 541Z" fill="#F4442E" stroke-linecap="round" stroke-linejoin="miter"></path></svg>