<svg id="visual" viewBox="0 0 960 540" width="960" height="540" xmlns="http://www.w3.org/2000/svg" xmlns:xlink="http://www.w3.org/1999/xlink" version="1.1"><rect x="0" y="0" width="960" height="540" fill="#88B5D1"></rect><path d="M0 459L22.8 450.3C45.7 441.7 91.3 424.3 137 410C182.7 395.7 228.3 384.3 274 388.2C319.7 392 365.3 411 411.2 428.3C457 445.7 503 461.3 548.8 442.5C594.7 423.7 640.3 370.3 686 355.5C731.7 340.7 777.3 364.3 823 365.7C868.7 367 914.3 346 937.2 335.5L960 325L960 541L937.2 541C914.3 541 868.7 541 823 541C777.3 541 731.7 541 686 541C640.3 541 594.7 541 548.8 541C503 541 457 541 411.2 541C365.3 541 319.7 541 274 541C228.3 541 182.7 541 137 541C91.3 541 45.7 541 22.8 541L0 541Z" fill="#eae0cc" stroke-linecap="round" stroke-linejoin="miter"></path></svg>