<svg id="visual" viewBox="0 0 960 540" width="960" height="540" xmlns="http://www.w3.org/2000/svg" xmlns:xlink="http://www.w3.org/1999/xlink" version="1.1"><rect x="0" y="0" width="960" height="540" fill="#88B5D1"></rect><path d="M0 419L20 419.3C40 419.7 80 420.3 120 430.2C160 440 200 459 240 466.7C280 474.3 320 470.7 360 455.8C400 441 440 415 480 403.3C520 391.7 560 394.3 600 406.8C640 419.3 680 441.7 720 459.2C760 476.7 800 489.3 840 476.5C880 463.7 920 425.3 940 406.2L960 387L960 541L940 541C920 541 880 541 840 541C800 541 760 541 720 541C680 541 640 541 600 541C560 541 520 541 480 541C440 541 400 541 360 541C320 541 280 541 240 541C200 541 160 541 120 541C80 541 40 541 20 541L0 541Z" fill="#88B5D1" stroke-linecap="round" stroke-linejoin="miter"></path></svg>